<svg width="275" height="242" viewBox="0 0 275 242" fill="none" xmlns="http://www.w3.org/2000/svg">
<path fill-rule="evenodd" clip-rule="evenodd" d="M33.9293 201.118L60.3602 210.904V229.751C60.4967 230.707 61.3428 232.619 63.6357 232.619H106.273C107.228 232.482 109.139 231.717 109.139 229.751V223.605C113.888 223.902 123.63 223.768 130.626 223.672C133.28 223.636 135.539 223.605 136.981 223.605C138.459 223.605 140.601 223.638 143.071 223.675L143.078 223.675C149.367 223.771 157.78 223.899 162.775 223.605V229.751C162.775 230.707 163.594 232.619 166.869 232.619H213.136C214.228 232.619 216.411 232.045 216.411 229.751V210.904C218.247 210.229 220.699 209.414 223.301 208.548C223.642 208.435 223.987 208.32 224.335 208.205L225.032 207.974C231.52 205.826 238.666 203.459 239.044 202.244C241.933 192.96 242.858 181.977 243.763 171.217C243.922 169.323 244.081 167.435 244.25 165.566L244.25 165.561L244.25 165.558L244.251 165.556C244.519 162.583 244.783 159.656 245.072 156.821C244.935 155.455 245.809 152.724 250.394 152.724H261.04C262.268 152.997 264.807 152.478 265.134 148.217C265.171 147.744 265.236 147.097 265.316 146.299C266.144 138.103 268.585 113.949 257.764 98.6405C248.265 85.2017 239.613 76.9253 236.474 74.467C236.474 74.467 219.277 8.88475 135.752 8.88475C65.6446 8.88475 40.8996 52.2055 35.031 75.6962C27.5246 79.2471 13.3328 97.7322 9.29431 111.463C5.92506 122.919 6.4275 135.217 6.68655 141.559C6.73801 142.818 6.77987 143.843 6.77987 144.579C6.77987 149.021 6.77986 151.848 10.9097 153.464C12.2079 153.81 13.1722 154.082 13.9299 154.296C15.1897 154.651 15.8782 154.845 16.58 154.951C17.4258 155.079 18.2908 155.079 20.1983 155.079C22.1977 155.079 22.3974 155.079 22.5646 155.006C22.5831 154.997 22.6013 154.988 22.6214 154.978C22.8234 154.877 23.2272 154.675 26.2561 154.272C26.5132 155.814 26.7039 156.391 26.8183 156.737C26.8835 156.935 26.924 157.057 26.9377 157.241C26.9558 157.482 26.975 157.743 26.9954 158.021C27.4613 164.355 28.6233 180.152 33.9293 201.118ZM40.7631 188.779C38.4887 179.765 35.031 156.821 35.8498 134.696C37.2469 96.9474 51.8179 33.11 136.981 33.5197C222.143 33.9294 236.474 94.953 236.474 136.744C236.474 168.867 233.954 181.12 232.546 187.967L232.544 187.976L232.523 188.08C232.473 188.319 232.426 188.552 232.379 188.779C216.957 196.427 175.304 211.559 136.981 210.904C98.6574 210.248 57.277 195.881 40.7631 188.779ZM136.981 198.995C102.588 199.978 68.6505 187.959 50.7718 181.404C47.0869 166.79 46.8954 146.299 47.0869 136.744C47.4998 116.139 56.2114 77.7446 136.981 77.7446C208.814 77.7446 225.032 103.883 225.032 136.744C225.032 146.299 224.529 165.971 223.301 179.765C208.561 185.638 171.373 198.012 136.981 198.995ZM77.9493 143.387V119.117C77.9493 118.013 78.8447 117.117 79.9493 117.117H86.3725V98.0784H95.3725V117.117H101.796C102.9 117.117 103.796 118.013 103.796 119.117V143.387C103.796 144.491 102.9 145.387 101.796 145.387H95.3725V172.849H86.3725V145.387H79.9493C78.8447 145.387 77.9493 144.491 77.9493 143.387ZM121.565 161.925V176.503C121.565 177.607 122.461 178.503 123.565 178.503H135.579V183.349H144.579V178.503H157.527C158.632 178.503 159.527 177.607 159.527 176.503V161.925C159.527 160.821 158.632 159.925 157.527 159.925H144.579V117.117H135.579V159.925H123.565C122.461 159.925 121.565 160.821 121.565 161.925ZM176.489 142.579V118.309C176.489 117.205 177.385 116.309 178.489 116.309H184.912L184.912 98.0784H193.912L193.912 116.309H200.336C201.44 116.309 202.336 117.205 202.336 118.309V142.579C202.336 143.684 201.44 144.579 200.336 144.579H193.912L193.912 172.849H184.912L184.912 144.579H178.489C177.385 144.579 176.489 143.684 176.489 142.579Z" fill="#c7c7c7"/>
</svg>
