<svg width="273" height="240" viewBox="0 0 273 240" fill="none" xmlns="http://www.w3.org/2000/svg">
<path fill-rule="evenodd" clip-rule="evenodd" d="M33.6825 199.866L59.9212 209.591V228.32C60.0567 229.27 60.8967 231.171 63.1729 231.171H105.5C106.448 231.035 108.345 230.275 108.345 228.32V222.213C113.06 222.508 122.731 222.375 129.676 222.28C132.311 222.244 134.554 222.213 135.984 222.213C137.452 222.213 139.578 222.245 142.031 222.283L142.038 222.283C148.281 222.378 156.632 222.505 161.591 222.213V228.32C161.591 229.27 162.404 231.171 165.656 231.171H211.586C212.67 231.171 214.837 230.601 214.837 228.32V209.591C216.66 208.92 219.094 208.11 221.677 207.25C222.016 207.137 222.358 207.023 222.703 206.909L223.395 206.679C229.836 204.544 236.93 202.192 237.305 200.985C240.174 191.759 241.091 180.844 241.99 170.151C242.148 168.268 242.306 166.393 242.473 164.535L242.474 164.53L242.474 164.527L242.474 164.526C242.741 161.571 243.003 158.662 243.289 155.844C243.154 154.487 244.021 151.773 248.573 151.773H259.141C260.361 152.044 262.881 151.528 263.206 147.294C263.242 146.824 263.307 146.182 263.387 145.389C264.209 137.243 266.631 113.239 255.89 98.0264C246.46 84.6712 237.87 76.4464 234.754 74.0034C234.754 74.0034 217.683 8.82943 134.765 8.82943C65.1672 8.82943 40.6021 51.8805 34.7762 75.2249C27.3245 78.7537 13.2359 97.1237 9.22672 110.769C5.88197 122.153 6.38075 134.376 6.63792 140.677C6.68901 141.929 6.73056 142.947 6.73056 143.679C6.73056 148.094 6.73055 150.903 10.8304 152.508C12.1191 152.852 13.0764 153.123 13.8285 153.335C15.0792 153.688 15.7627 153.881 16.4595 153.987C17.299 154.114 18.1578 154.114 20.0514 154.114C22.0363 154.114 22.2345 154.114 22.4005 154.041C22.4189 154.032 22.4369 154.023 22.4569 154.013C22.6574 153.913 23.0583 153.712 26.0651 153.311C26.3204 154.844 26.5097 155.417 26.6232 155.761C26.688 155.958 26.7281 156.079 26.7418 156.262C26.7598 156.502 26.7788 156.76 26.7991 157.037C27.2616 163.332 28.4151 179.03 33.6825 199.866ZM40.4666 187.604C38.2088 178.646 34.7762 155.844 35.5891 133.857C36.9761 96.3438 51.441 32.9039 135.984 33.311C220.528 33.7182 234.754 94.3618 234.754 135.893C234.754 167.816 232.252 179.993 230.854 186.797L230.853 186.806L230.832 186.909C230.783 187.147 230.735 187.378 230.689 187.604C215.379 195.204 174.029 210.242 135.984 209.591C97.9399 208.939 56.8604 194.661 40.4666 187.604ZM135.984 197.756C101.842 198.733 68.1513 186.789 50.4026 180.274C46.7444 165.751 46.5543 145.389 46.7444 135.893C47.1544 115.416 55.8026 77.2606 135.984 77.2606C207.296 77.2606 223.395 103.236 223.395 135.893C223.395 145.389 222.896 164.938 221.677 178.646C207.045 184.482 170.127 196.779 135.984 197.756ZM77.3824 142.494V118.376C77.3824 117.278 78.2713 116.388 79.3678 116.388H85.7443V97.4678H94.6789V116.388H101.055C102.152 116.388 103.041 117.278 103.041 118.376V142.494C103.041 143.592 102.152 144.482 101.055 144.482H94.6789V171.773H85.7443V144.482H79.3678C78.2713 144.482 77.3824 143.592 77.3824 142.494ZM120.681 160.917V175.404C120.681 176.501 121.57 177.391 122.667 177.391H134.593V182.207H143.528V177.391H156.382C157.478 177.391 158.367 176.501 158.367 175.404V160.917C158.367 159.82 157.478 158.93 156.382 158.93H143.528V116.388H134.593V158.93H122.667C121.57 158.93 120.681 159.82 120.681 160.917ZM175.205 141.691V117.573C175.205 116.475 176.094 115.585 177.191 115.585H183.568L183.568 97.4678H192.502L192.502 115.585H198.879C199.975 115.585 200.864 116.475 200.864 117.573V141.691C200.864 142.789 199.975 143.679 198.879 143.679H192.502L192.502 171.773H183.568L183.568 143.679H177.191C176.094 143.679 175.205 142.789 175.205 141.691Z" fill="#1F282C"/>
</svg>
