<svg width="163" height="163" viewBox="0 0 163 163" fill="none" xmlns="http://www.w3.org/2000/svg">
<g clip-path="url(#clip0_656_12)">
<path d="M156.039 40.7772L122.223 6.96146C117.734 2.47217 111.764 0 105.413 0H57.5865C51.2363 0 45.2733 2.47217 40.7772 6.96146L6.96146 40.7772C2.47217 45.2665 0 51.2363 0 57.5865V105.413C0 111.764 2.47217 117.727 6.96146 122.223L40.7772 156.039C45.2665 160.528 51.2363 163 57.5865 163H105.413C111.764 163 117.727 160.528 122.223 156.039L156.039 122.223C160.528 117.734 163 111.764 163 105.413V57.5865C163 51.2363 160.528 45.2733 156.039 40.7772ZM142.625 105.413C142.625 106.303 142.258 107.179 141.633 107.818L107.818 141.633C107.179 142.265 106.31 142.625 105.413 142.625H57.5865C56.6968 142.625 55.8207 142.265 55.1823 141.633L21.3666 107.818C20.735 107.186 20.375 106.31 20.375 105.413V57.5865C20.375 56.6968 20.735 55.8207 21.3666 55.1823L55.1823 21.3666C55.8139 20.735 56.69 20.375 57.5865 20.375H105.413C106.31 20.375 107.179 20.735 107.818 21.3666L141.633 55.1823C142.265 55.8139 142.625 56.69 142.625 57.5865V105.413ZM112.715 64.6906L95.9051 81.5L112.715 98.3094L98.3094 112.715L81.5 95.9051L64.6906 112.715L50.2855 98.3094L67.0949 81.5L50.2855 64.6906L64.6906 50.2855L81.5 67.0949L98.3094 50.2855L112.715 64.6906Z" fill="#EF664B"/>
</g>
<defs>
<clipPath id="clip0_656_12">
<rect width="163" height="163" fill="white"/>
</clipPath>
</defs>
</svg>
