<svg width="144" height="121" viewBox="0 0 144 121" fill="none" xmlns="http://www.w3.org/2000/svg">
<path d="M0 72L16.0714 55.2857L32.1429 72L16.0714 88.7143L0 72Z" fill="#c7c7c7"/>
<path d="M27 44.1594L72 0L117 44.1594L100.421 60.4286L72 32.5386L43.5789 60.4286L27 44.1594Z" fill="#c7c7c7"/>
<path d="M55.2857 72L72 55.2857L88.7143 72L72 88.7143L55.2857 72Z" fill="#c7c7c7"/>
<path d="M43.5789 83.5714L27 99.8406L72 144L117 99.8406L100.421 83.5714L72 111.461L43.5789 83.5714Z" fill="#c7c7c7"/>
<path d="M111.857 72L127.929 55.2857L144 72L127.929 88.7143L111.857 72Z" fill="#c7c7c7"/>
</svg>
