<svg width="341" height="299" viewBox="0 0 341 299" fill="none" xmlns="http://www.w3.org/2000/svg">
<path d="M64.9078 269.98L35.3311 258.481C32.2273 240.047 26.5953 198.5 26.5953 198.5C21.6309 199.741 6.50705 193 4.00699 193C-1.366 176 -0.174286 156.339 1.00708 149C7.14148 110.89 26.385 94.0327 36.4265 89.2873C44.2771 57.8942 77.3794 0 171.165 0C281.408 0 305.904 87.6446 305.904 87.6446C310.103 90.9299 328.315 108.617 336.595 129C343.095 145 339.703 186.046 338.595 197C338.203 199.358 315.595 198.5 315.595 198.5C315.595 198.5 315.787 232 309.595 258.481C297.095 263 292.095 266 279.065 269.98V295.167C279.065 298.233 276.144 299 274.684 299H202.595C198.213 299 196.095 299 196.095 295.261V284.048C192.79 283.997 146.572 284.048 144.595 284.048V295.261C144.595 299 143.095 299 131.729 299H100.509H69.2896C66.2224 299 65.0904 296.445 64.9078 295.167V269.98Z" fill="#EDFFF5"/>
<path fill-rule="evenodd" clip-rule="evenodd" d="M74.7306 261.115L42.0071 249C35.1489 221.9 33.8827 201.776 33.351 194.676C33.3041 194.05 33.0071 194 32.5071 191C25.0071 192 30.5071 192 25.0071 192C19.5071 192 21.0071 192 13.5071 190C8.394 188 8.39401 184.5 8.39401 179C8.39401 173.5 6.5071 155 11.5071 138C16.5071 121 34.0776 98.1139 43.371 93.7177C50.6368 64.6345 81.273 11 168.072 11C271.482 11 292.772 92.1959 292.772 92.1959C296.659 95.2394 307.372 105.486 319.132 122.125C332.528 141.077 329.507 170.982 328.482 181.13C328.382 182.118 328.301 182.919 328.256 183.504C327.851 188.779 324.708 189.422 323.187 189.083H310.008C304.33 189.083 303.249 192.465 303.418 194.156C303.06 197.668 302.733 201.293 302.4 204.977L302.4 204.98L302.4 204.983C302.191 207.298 301.994 209.634 301.797 211.979C300.676 225.301 299.532 238.899 295.955 250.394C295.487 251.898 286.639 254.828 278.607 257.488C277.884 257.727 277.167 257.965 276.464 258.199C273.242 259.27 270.207 260.279 267.934 261.115V284.449C267.934 287.29 265.23 288 263.878 288H206.597C202.542 288 201.528 285.633 201.528 284.449V276.84C195.343 277.204 184.928 277.046 177.142 276.927L177.133 276.927C174.075 276.881 171.422 276.84 169.593 276.84C167.808 276.84 165.011 276.879 161.725 276.924C153.063 277.042 141.002 277.208 135.122 276.84V284.449C135.122 286.884 132.757 287.831 131.574 288H78.7859C75.9471 288 74.8995 285.633 74.7306 284.449V261.115ZM50.4678 233.723C47.652 222.563 43.371 194.156 44.3849 166.764C46.1146 120.028 64.1545 40.9927 169.593 41.5C275.031 42.0073 292.772 117.559 292.772 169.3C292.772 210.693 289.393 225.437 287.703 233.723C268.61 243.192 217.04 261.927 169.593 261.115C122.145 260.303 70.9133 242.515 50.4678 233.723ZM169.593 246.371C127.012 247.588 84.9946 232.708 62.8594 224.592C58.2972 206.498 58.0601 181.13 58.2972 169.3C58.8085 143.789 69.594 96.2538 169.593 96.2538C258.528 96.2538 278.607 128.615 278.607 169.3C278.607 181.13 277.985 205.485 276.464 222.563C258.215 229.834 212.173 245.153 169.593 246.371Z" fill="#0A2F38"/>
<path d="M96.507 178V147C96.507 145.895 97.4025 145 98.507 145H126.507C127.612 145 128.507 145.895 128.507 147V178C128.507 179.105 127.612 180 126.507 180H98.507C97.4025 180 96.507 179.105 96.507 178Z" fill="#8BFFBC"/>
<path d="M117.007 127L117.007 122.5L108.007 122.5L108.007 127L117.007 127ZM108.007 127L108.007 214L117.007 214L117.007 127L108.007 127Z" fill="#8BFFBC"/>
<path d="M218.507 177V146C218.507 144.895 219.402 144 220.507 144H248.507C249.612 144 250.507 144.895 250.507 146V177C250.507 178.105 249.612 179 248.507 179H220.507C219.402 179 218.507 178.105 218.507 177Z" fill="#8BFFBC"/>
<path d="M239.007 127L239.007 122.5L230.007 122.5L230.007 127L239.007 127ZM230.007 127L230.007 214L239.007 214L239.007 127L230.007 127Z" fill="#8BFFBC"/>
<path d="M150.507 219V200C150.507 198.895 151.402 198 152.507 198H195.507C196.612 198 197.507 198.895 197.507 200V219C197.507 220.105 196.612 221 195.507 221H152.507C151.402 221 150.507 220.105 150.507 219Z" fill="#8BFFBC"/>
<line x1="174.5" y1="222.5" x2="174.5" y2="149.5" stroke="#8BFFBC" stroke-width="9" stroke-linecap="square"/>
</svg>
