<svg width="341" height="299" viewBox="0 0 341 299" fill="none" xmlns="http://www.w3.org/2000/svg">
<path d="M65.4008 269.98L35.824 258.481C32.7203 240.047 27.0882 198.5 27.0882 198.5C22.1238 199.741 6.99997 193 4.49991 193C-0.873078 176 0.318634 156.339 1.5 149C7.6344 110.89 26.8779 94.0327 36.9194 89.2873C44.7701 57.8942 77.8723 0 171.658 0C281.901 0 306.397 87.6446 306.397 87.6446C310.596 90.9299 328.808 108.617 337.088 129C343.588 145 340.196 186.046 339.088 197C338.696 199.358 316.088 198.5 316.088 198.5C316.088 198.5 316.28 232 310.088 258.481C297.588 263 292.588 266 279.558 269.98V295.167C279.558 298.233 276.637 299 275.177 299H203.088C198.706 299 196.588 299 196.588 295.261V284.048C193.283 283.997 147.065 284.048 145.088 284.048V295.261C145.088 299 143.588 299 132.222 299H101.002H69.7825C66.7153 299 65.5833 296.445 65.4008 295.167V269.98Z" fill="#EDFFF5"/>
<path fill-rule="evenodd" clip-rule="evenodd" d="M75.2235 261.115L42.5 249C35.6419 221.9 34.3756 201.776 33.8439 194.676C33.797 194.05 33.5 194 33 191C25.5 192 31 192 25.5 192C20 192 21.5 192 14 190C8.88692 188 8.88693 184.5 8.88693 179C8.88693 173.5 7.00002 155 12 138C17 121 34.5705 98.1139 43.864 93.7177C51.1297 64.6345 81.7659 11 168.565 11C271.975 11 293.265 92.1959 293.265 92.1959C297.152 95.2394 307.865 105.486 319.625 122.125C333.021 141.077 330 170.982 328.975 181.13C328.875 182.118 328.794 182.919 328.749 183.504C328.344 188.779 325.201 189.422 323.68 189.083H310.5C304.823 189.083 303.742 192.465 303.911 194.156C303.553 197.668 303.226 201.293 302.893 204.977L302.893 204.98L302.893 204.983C302.684 207.298 302.487 209.634 302.29 211.979C301.169 225.301 300.025 238.899 296.448 250.394C295.98 251.898 287.132 254.828 279.1 257.488C278.377 257.727 277.66 257.965 276.957 258.199C273.735 259.27 270.7 260.279 268.427 261.115V284.449C268.427 287.29 265.723 288 264.371 288H207.09C203.035 288 202.021 285.633 202.021 284.449V276.84C195.836 277.204 185.421 277.046 177.635 276.927L177.626 276.927C174.567 276.881 171.915 276.84 170.085 276.84C168.301 276.84 165.504 276.879 162.218 276.924C153.556 277.042 141.495 277.208 135.615 276.84V284.449C135.615 286.884 133.25 287.831 132.067 288H79.2788C76.4401 288 75.3924 285.633 75.2235 284.449V261.115ZM50.9607 233.723C48.1449 222.563 43.864 194.156 44.8778 166.764C46.6075 120.028 64.6474 40.9927 170.085 41.5C275.523 42.0073 293.265 117.559 293.265 169.3C293.265 210.693 289.886 225.437 288.196 233.723C269.103 243.192 217.533 261.927 170.085 261.115C122.638 260.303 71.4062 242.515 50.9607 233.723ZM170.085 246.371C127.505 247.588 85.4876 232.708 63.3523 224.592C58.7901 206.498 58.553 181.13 58.7901 169.3C59.3014 143.789 70.0869 96.2538 170.085 96.2538C259.021 96.2538 279.1 128.615 279.1 169.3C279.1 181.13 278.477 205.485 276.957 222.563C258.708 229.834 212.666 245.153 170.085 246.371Z" fill="#0A2F38"/>
<path d="M98 157V126C98 124.895 98.8954 124 100 124H128C129.105 124 130 124.895 130 126V157C130 158.105 129.105 159 128 159H100C98.8954 159 98 158.105 98 157Z" fill="#8BFFBC"/>
<path d="M118 118C118 115.791 116.209 114 114 114C111.791 114 110 115.791 110 118L118 118ZM110 118L110 205L118 205L118 118L110 118Z" fill="#8BFFBC"/>
<path d="M220 157V126C220 124.895 220.895 124 222 124H250C251.105 124 252 124.895 252 126V157C252 158.105 251.105 159 250 159H222C220.895 159 220 158.105 220 157Z" fill="#8BFFBC"/>
<path d="M240 118C240 115.791 238.209 114 236 114C233.791 114 232 115.791 232 118L240 118ZM232 118L232 204.5L240 204.5L240 118L232 118Z" fill="#8BFFBC"/>
<path d="M151 217V198C151 196.895 151.895 196 153 196H196C197.105 196 198 196.895 198 198V217C198 218.105 197.105 219 196 219H153C151.895 219 151 218.105 151 217Z" fill="#8BFFBC"/>
<line x1="173.754" y1="224.5" x2="173.754" y2="152.5" stroke="#8BFFBC" stroke-width="5" stroke-linecap="round"/>
</svg>
