<svg width="1222" height="299" viewBox="0 0 1222 299" fill="none" xmlns="http://www.w3.org/2000/svg">
<path d="M67.4008 269.98L37.824 258.481C34.7203 240.047 29.0883 198.5 29.0883 198.5C19.0883 201 -5.53443 192.544 1.12695 151.161C7.26139 113.051 28.878 94.0327 38.9195 89.2873C46.7701 57.8942 79.8724 0 173.658 0C283.901 0 308.396 87.6446 308.396 87.6446C312.596 90.9299 330.808 108.617 339.088 129C345.588 145 342.196 186.046 341.088 197C340.696 199.358 318.088 198.5 318.088 198.5C318.088 198.5 318.28 232 312.088 258.481C299.588 263 294.588 266 281.558 269.98V295.167C281.558 298.233 278.637 299 277.177 299H205.088C200.706 299 198.588 299 198.588 295.261V284.048C195.283 283.997 149.065 284.048 147.088 284.048V295.261C147.088 299 145.588 299 134.222 299H103.002H71.7825C68.7153 299 67.5834 296.445 67.4008 295.167V269.98Z" fill="#8BFFBC"/>
<path fill-rule="evenodd" clip-rule="evenodd" d="M49.4493 249.067L76.4493 259.567V282.567C76.616 283.734 77.6493 286.067 80.4493 286.067H137.449C138.616 285.901 140.949 284.967 140.949 282.567V275.067C146.749 275.43 158.646 275.267 167.189 275.15C170.431 275.105 173.189 275.067 174.949 275.067C176.754 275.067 179.37 275.107 182.387 275.153L182.396 275.153C190.076 275.27 200.349 275.426 206.449 275.067V282.567C206.449 283.734 207.449 286.067 211.449 286.067H267.949C269.283 286.067 271.949 285.367 271.949 282.567V259.567C274.191 258.744 277.185 257.749 280.363 256.693C288.761 253.902 299.085 250.616 299.588 249C303.738 235.675 304.568 219.483 305.945 204.239L305.946 204.236C306.274 200.605 306.597 197.031 306.949 193.567C306.783 191.901 307.849 188.567 313.449 188.567H326.449C327.949 188.901 331.049 188.267 331.449 183.067C331.494 182.491 331.573 181.702 331.672 180.728C332.683 170.725 335.663 141.249 322.449 122.567C310.849 106.167 300.283 96.0675 296.449 93.0675C296.449 93.0675 275.449 13.0345 173.449 13.0345C87.8344 13.0345 57.616 65.9008 50.4493 94.5675C41.2827 98.9008 21.5493 116.267 15.9493 151.067C9.86831 188.857 20.3901 189.29 23.2575 189.408C23.2575 189.408 23.9493 189.436 23.9493 189.567C23.9493 189.857 25.2864 189.728 27.1995 189.544C31.9045 189.091 40.0939 188.302 40.4493 192.567C40.4818 192.957 40.5197 193.463 40.5659 194.08C41.0904 201.078 42.6848 222.356 49.4493 249.067ZM51.4493 154.567C49.0493 191.367 54.4493 221.901 57.4493 232.567C77.616 241.234 128.149 258.767 174.949 259.567C221.749 260.367 272.616 241.901 291.449 232.567C293.116 224.401 296.449 197.867 296.449 157.067C296.449 106.067 276.949 21.5345 172.949 21.0345C68.9493 20.5345 54.4493 108.567 51.4493 154.567ZM61.9493 222.067C83.7827 230.067 132.949 246.234 174.949 245.034C216.949 243.834 268.449 228.734 286.449 221.567C287.949 204.734 290.749 168.267 289.949 157.067C289.9 156.377 289.854 155.449 289.798 154.306C288.715 132.285 283.73 30.8866 173.449 28.0345C65.4538 25.2415 57.5926 129.421 57.0883 154.567C56.5883 179.5 57.0883 192.567 61.9493 222.067ZM228.449 113.567C219.283 114.234 200.749 121.367 199.949 144.567C199.149 167.767 218.616 172.901 228.449 172.567C238.449 172.567 258.449 166.667 258.449 143.067C258.449 119.467 238.449 113.567 228.449 113.567ZM89.4493 143.067C89.8493 120.267 108.949 113.901 118.449 113.567C127.949 113.567 147.149 119.467 147.949 143.067C148.749 166.667 128.616 172.567 118.449 172.567C108.616 172.234 89.0493 165.867 89.4493 143.067ZM173.449 50.5675C121.826 50.5675 101.037 72.8854 88.343 86.5133C87.5126 87.4048 86.7168 88.259 85.9493 89.0675C98.4493 83.0675 133.449 70.8675 173.449 70.0675C213.449 69.2675 248.783 82.4008 261.449 89.0675C260.384 88.0164 259.265 86.8699 258.075 85.6514C245.118 72.3789 223.825 50.5675 173.449 50.5675ZM215.949 196.067C215.949 196.067 141.283 196.901 131.949 196.067C131.949 221.051 153.776 221.566 172.66 222.012C173.429 222.03 174.192 222.048 174.949 222.067C223.588 223.324 215.949 196.067 215.949 196.067Z" fill="#0A2F38"/>
<g filter="url(#filter0_d_2_16)">
<path d="M428.2 119.4C440.733 119.4 450.667 120.467 458 122.6C465.467 124.6 470.8 128.2 474 133.4C477.2 138.6 478.8 145.933 478.8 155.4C478.8 165.267 476.867 172.8 473 178C469.267 183.067 462.933 186 454 186.8V188C464.933 188.933 472.533 192.533 476.8 198.8C481.2 204.933 483.4 213.533 483.4 224.6C483.4 234.067 481.667 241.4 478.2 246.6C474.867 251.8 469.6 255.467 462.4 257.6C455.333 259.6 446.133 260.6 434.8 260.6C425.333 260.6 417 260.533 409.8 260.4C402.733 260.4 396.2 260.267 390.2 260C384.333 259.733 378.267 259.4 372 259L375 233.8C378.467 233.933 384.933 234.067 394.4 234.2C404 234.333 415.2 234.4 428 234.4C432.8 234.4 436.467 234 439 233.2C441.667 232.267 443.467 230.533 444.4 228C445.467 225.467 446 221.867 446 217.2C446 212.267 445.467 208.467 444.4 205.8C443.333 203.133 441.467 201.333 438.8 200.4C436.267 199.333 432.533 198.8 427.6 198.8H374.8V176.2H427.2C431.333 176.2 434.533 175.8 436.8 175C439.067 174.2 440.667 172.667 441.6 170.4C442.533 168.133 443 164.867 443 160.6C443 156.467 442.533 153.333 441.6 151.2C440.667 149.067 439 147.6 436.6 146.8C434.2 146 430.8 145.6 426.4 145.6C418.4 145.6 411.4 145.6 405.4 145.6C399.4 145.467 393.933 145.467 389 145.6C384.2 145.6 379.533 145.8 375 146.2L372 121C377.733 120.467 383.267 120.133 388.6 120C393.933 119.733 399.8 119.6 406.2 119.6C412.6 119.467 419.933 119.4 428.2 119.4ZM408.6 121V259H372V121H408.6ZM550.473 156.8C563.54 156.8 574.007 158.533 581.873 162C589.74 165.333 595.407 170.867 598.873 178.6C602.34 186.2 604.073 196.467 604.073 209.4C604.073 222.2 602.34 232.4 598.873 240C595.407 247.467 589.74 252.933 581.873 256.4C574.007 259.733 563.54 261.4 550.473 261.4C537.407 261.4 526.94 259.733 519.073 256.4C511.207 252.933 505.54 247.467 502.073 240C498.607 232.4 496.873 222.2 496.873 209.4C496.873 196.467 498.607 186.2 502.073 178.6C505.54 170.867 511.207 165.333 519.073 162C526.94 158.533 537.407 156.8 550.473 156.8ZM550.473 182.2C546.34 182.2 543.14 182.933 540.873 184.4C538.74 185.867 537.207 188.533 536.273 192.4C535.34 196.267 534.873 201.933 534.873 209.4C534.873 216.733 535.34 222.333 536.273 226.2C537.207 230.067 538.74 232.733 540.873 234.2C543.14 235.533 546.34 236.2 550.473 236.2C554.607 236.2 557.807 235.533 560.073 234.2C562.34 232.733 563.873 230.067 564.673 226.2C565.607 222.333 566.073 216.733 566.073 209.4C566.073 201.933 565.607 196.267 564.673 192.4C563.873 188.533 562.34 185.867 560.073 184.4C557.807 182.933 554.607 182.2 550.473 182.2ZM666.005 132.8V224.8C666.005 227.733 666.738 229.867 668.205 231.2C669.671 232.533 672.138 233.2 675.605 233.2H687.205L691.205 257C688.538 258.067 685.271 258.933 681.405 259.6C677.671 260.267 673.871 260.733 670.005 261C666.138 261.4 662.805 261.6 660.005 261.6C650.671 261.6 643.271 259.2 637.805 254.4C632.471 249.467 629.805 242.667 629.805 234L629.605 132.8H666.005ZM691.805 159.6V182.2H612.605V160.6L631.805 159.6H691.805ZM755.966 118.2C763.032 118.333 770.832 118.8 779.366 119.6C787.899 120.4 796.166 122.067 804.166 124.6L801.766 149C795.899 148.867 788.699 148.733 780.166 148.6C771.766 148.467 763.499 148.4 755.366 148.4C752.299 148.4 749.699 148.533 747.566 148.8C745.566 148.933 743.899 149.333 742.566 150C741.366 150.533 740.499 151.4 739.966 152.6C739.432 153.667 739.166 155.2 739.166 157.2C739.166 160.4 740.099 162.867 741.966 164.6C743.966 166.2 747.432 167.867 752.366 169.6L778.166 179.2C789.366 183.6 797.166 189.067 801.566 195.6C806.099 202 808.366 210.333 808.366 220.6C808.366 228.333 807.432 234.867 805.566 240.2C803.699 245.533 800.632 249.733 796.366 252.8C792.232 255.867 786.699 258.133 779.766 259.6C772.966 261.067 764.499 261.8 754.366 261.8C749.699 261.8 742.832 261.467 733.766 260.8C724.832 260.133 714.699 258.4 703.366 255.6L705.566 229.2C713.566 229.333 720.632 229.533 726.766 229.8C733.032 229.933 738.432 230.067 742.966 230.2C747.632 230.2 751.299 230.2 753.966 230.2C758.499 230.2 761.966 230 764.366 229.6C766.766 229.067 768.432 228.2 769.366 227C770.299 225.667 770.766 223.8 770.766 221.4C770.766 219.133 770.432 217.333 769.766 216C769.099 214.667 767.899 213.533 766.166 212.6C764.566 211.667 762.366 210.733 759.566 209.8L731.966 198.8C721.032 194.267 713.299 188.867 708.766 182.6C704.232 176.333 701.966 168.133 701.966 158C701.966 150 702.966 143.467 704.966 138.4C706.966 133.333 710.032 129.333 714.166 126.4C718.432 123.467 724.032 121.4 730.966 120.2C737.899 118.867 746.232 118.2 755.966 118.2ZM870.497 132.8V224.8C870.497 227.733 871.23 229.867 872.697 231.2C874.164 232.533 876.63 233.2 880.097 233.2H891.697L895.697 257C893.03 258.067 889.764 258.933 885.897 259.6C882.164 260.267 878.364 260.733 874.497 261C870.63 261.4 867.297 261.6 864.497 261.6C855.164 261.6 847.764 259.2 842.297 254.4C836.964 249.467 834.297 242.667 834.297 234L834.097 132.8H870.497ZM896.297 159.6V182.2H817.097V160.6L836.297 159.6H896.297ZM959.458 156.8C972.524 156.8 982.991 158.533 990.858 162C998.724 165.333 1004.39 170.867 1007.86 178.6C1011.32 186.2 1013.06 196.467 1013.06 209.4C1013.06 222.2 1011.32 232.4 1007.86 240C1004.39 247.467 998.724 252.933 990.858 256.4C982.991 259.733 972.524 261.4 959.458 261.4C946.391 261.4 935.924 259.733 928.058 256.4C920.191 252.933 914.524 247.467 911.058 240C907.591 232.4 905.858 222.2 905.858 209.4C905.858 196.467 907.591 186.2 911.058 178.6C914.524 170.867 920.191 165.333 928.058 162C935.924 158.533 946.391 156.8 959.458 156.8ZM959.458 182.2C955.324 182.2 952.124 182.933 949.858 184.4C947.724 185.867 946.191 188.533 945.258 192.4C944.324 196.267 943.858 201.933 943.858 209.4C943.858 216.733 944.324 222.333 945.258 226.2C946.191 230.067 947.724 232.733 949.858 234.2C952.124 235.533 955.324 236.2 959.458 236.2C963.591 236.2 966.791 235.533 969.058 234.2C971.324 232.733 972.858 230.067 973.658 226.2C974.591 222.333 975.058 216.733 975.058 209.4C975.058 201.933 974.591 196.267 973.658 192.4C972.858 188.533 971.324 185.867 969.058 184.4C966.791 182.933 963.591 182.2 959.458 182.2ZM1057.98 159.6L1062.38 179.6L1065.98 182.2V259H1029.58V159.6H1057.98ZM1106.38 156.8L1103.18 190.2H1093.58C1089.58 190.2 1085.18 190.6 1080.38 191.4C1075.58 192.2 1069.51 193.533 1062.18 195.4L1059.98 175.6C1066.64 169.333 1073.44 164.667 1080.38 161.6C1087.44 158.4 1094.24 156.8 1100.78 156.8H1106.38ZM1166.69 156.8C1184.56 156.8 1197.29 159.733 1204.89 165.6C1212.49 171.467 1216.29 180.133 1216.29 191.6C1216.42 200.8 1213.89 207.533 1208.69 211.8C1203.49 216.067 1194.29 218.2 1181.09 218.2H1126.69V200H1170.89C1175.42 200 1178.29 199.333 1179.49 198C1180.82 196.667 1181.49 194.267 1181.49 190.8C1181.36 186.933 1180.29 184.333 1178.29 183C1176.29 181.667 1172.82 181 1167.89 181C1163.22 180.867 1159.62 181.4 1157.09 182.6C1154.69 183.8 1153.02 186.2 1152.09 189.8C1151.16 193.4 1150.69 198.8 1150.69 206C1150.69 213.2 1151.22 218.733 1152.29 222.6C1153.49 226.467 1155.56 229.2 1158.49 230.8C1161.56 232.4 1165.82 233.2 1171.29 233.2C1175.56 233.2 1181.16 233.067 1188.09 232.8C1195.16 232.4 1202.56 231.8 1210.29 231L1213.69 253C1209.42 255.133 1204.69 256.8 1199.49 258C1194.42 259.2 1189.16 260.067 1183.69 260.6C1178.22 261.133 1172.76 261.4 1167.29 261.4C1153.96 261.4 1143.29 259.533 1135.29 255.8C1127.29 252.067 1121.49 246.4 1117.89 238.8C1114.42 231.067 1112.69 221.4 1112.69 209.8C1112.69 196.733 1114.49 186.333 1118.09 178.6C1121.69 170.867 1127.42 165.333 1135.29 162C1143.29 158.533 1153.76 156.8 1166.69 156.8Z" fill="#CBFEE1"/>
</g>
<defs>
<filter id="filter0_d_2_16" x="372" y="118.2" width="844.489" height="143.6" filterUnits="userSpaceOnUse" color-interpolation-filters="sRGB">
<feFlood flood-opacity="0" result="BackgroundImageFix"/>
<feColorMatrix in="SourceAlpha" type="matrix" values="0 0 0 0 0 0 0 0 0 0 0 0 0 0 0 0 0 0 127 0" result="hardAlpha"/>
<feOffset/>
<feComposite in2="hardAlpha" operator="out"/>
<feColorMatrix type="matrix" values="0 0 0 0 0 0 0 0 0 0 0 0 0 0 0 0 0 0 0.25 0"/>
<feBlend mode="normal" in2="BackgroundImageFix" result="effect1_dropShadow_2_16"/>
<feBlend mode="normal" in="SourceGraphic" in2="effect1_dropShadow_2_16" result="shape"/>
</filter>
</defs>
</svg>
