<svg width="343" height="299" viewBox="0 0 343 299" fill="none" xmlns="http://www.w3.org/2000/svg">
<path d="M67.4008 269.98L37.824 258.481C34.7203 240.047 29.0883 198.5 29.0883 198.5C19.0883 201 -5.53443 192.544 1.12695 151.161C7.26139 113.051 28.878 94.0327 38.9195 89.2873C46.7701 57.8942 79.8724 0 173.658 0C283.901 0 308.396 87.6446 308.396 87.6446C312.596 90.9299 330.808 108.617 339.088 129C345.588 145 342.196 186.046 341.088 197C340.696 199.358 318.088 198.5 318.088 198.5C318.088 198.5 318.28 232 312.088 258.481C299.588 263 294.588 266 281.558 269.98V295.167C281.558 298.233 278.637 299 277.177 299H205.088C200.706 299 198.588 299 198.588 295.261V284.048C195.283 283.997 149.065 284.048 147.088 284.048V295.261C147.088 299 145.588 299 134.222 299H103.002H71.7825C68.7153 299 67.5834 296.445 67.4008 295.167V269.98Z" fill="#EDFFF5"/>
<path fill-rule="evenodd" clip-rule="evenodd" d="M75.2774 258L48.2774 247.5C41.5128 220.789 39.9184 199.511 39.394 192.513C39.3478 191.895 39.3098 191.389 39.2774 191C38.9219 186.735 30.7326 187.523 26.0276 187.976C24.1144 188.16 22.7774 188.289 22.7774 188C22.7774 187.869 22.0856 187.84 22.0856 187.84C19.2181 187.722 8.69638 187.289 14.7774 149.5C20.3774 114.7 40.1107 97.3335 49.2774 93.0001C56.4441 64.3335 86.6625 11.4672 172.277 11.4672C274.277 11.4672 295.277 91.5001 295.277 91.5001C299.111 94.5001 309.677 104.6 321.277 121C334.491 139.681 331.511 169.158 330.5 179.16C330.402 180.134 330.322 180.923 330.277 181.5C329.877 186.7 326.777 187.334 325.277 187H312.277C306.677 187 305.611 190.334 305.777 192C305.425 195.462 305.102 199.035 304.774 202.666L304.774 202.669L304.773 202.672C304.567 204.954 304.373 207.257 304.179 209.568C303.073 222.699 301.945 236.102 298.416 247.433C297.955 248.915 289.228 251.803 281.305 254.425C280.592 254.661 279.885 254.895 279.191 255.125C276.013 256.182 273.019 257.176 270.777 258V281C270.777 283.8 268.111 284.5 266.777 284.5H210.277C206.277 284.5 205.277 282.167 205.277 281V273.5C199.177 273.859 188.904 273.703 181.224 273.586L181.215 273.586C178.198 273.54 175.582 273.5 173.777 273.5C172.017 273.5 169.259 273.538 166.017 273.582C157.474 273.699 145.577 273.862 139.777 273.5V281C139.777 283.4 137.444 284.333 136.277 284.5H79.2774C76.4774 284.5 75.4441 282.167 75.2774 281V258ZM56.2774 231C53.2774 220.334 47.8774 189.8 50.2774 153C53.2774 107 69.7774 54 173.777 54.5C277.777 55 295.277 104.5 295.277 155.5C295.277 196.3 291.944 222.834 290.277 231C271.444 240.334 220.577 258.8 173.777 258C126.977 257.2 76.4441 239.667 56.2774 231ZM173.777 243.467C131.777 244.667 82.6107 228.5 60.7774 220.5C55.9163 191 55.4163 177.933 55.9163 153C56.4206 127.854 65.7818 88.7072 173.777 91.5001C284.058 94.3522 287.543 130.717 288.626 152.739C288.682 153.881 288.728 154.81 288.777 155.5C289.577 166.7 286.777 203.167 285.277 220C267.277 227.167 215.777 242.267 173.777 243.467Z" fill="#0A2F38"/>
<path d="M100 171V117C100 115.895 100.895 115 102 115H130C131.105 115 132 115.895 132 117V171C132 172.105 131.105 173 130 173H102C100.895 173 100 172.105 100 171Z" fill="#8BFFBC"/>
<path d="M120 109C120 106.791 118.209 105 116 105C113.791 105 112 106.791 112 109L120 109ZM112 109L112 215L120 215L120 109L112 109Z" fill="#8BFFBC"/>
<path d="M221 171V117C221 115.895 221.895 115 223 115H251C252.105 115 253 115.895 253 117V171C253 172.105 252.105 173 251 173H223C221.895 173 221 172.105 221 171Z" fill="#8BFFBC"/>
<path d="M241 109C241 106.791 239.209 105 237 105C234.791 105 233 106.791 233 109L241 109ZM233 109L233 215L241 215L241 109L233 109Z" fill="#8BFFBC"/>
<path d="M153 191V172C153 170.895 153.895 170 155 170H198C199.105 170 200 170.895 200 172V191C200 192.105 199.105 193 198 193H155C153.895 193 153 192.105 153 191Z" fill="#8BFFBC"/>
<line x1="175.754" y1="198.5" x2="175.754" y2="126.5" stroke="#8BFFBC" stroke-width="5" stroke-linecap="round"/>
</svg>
