<svg width="343" height="299" viewBox="0 0 343 299" fill="none" xmlns="http://www.w3.org/2000/svg">
<path d="M67.4008 269.98L37.824 258.481C34.7203 240.047 29.0883 198.5 29.0883 198.5C19.0883 201 -5.53443 192.544 1.12695 151.161C7.26139 113.051 28.878 94.0327 38.9195 89.2873C46.7701 57.8942 79.8724 0 173.658 0C283.901 0 308.396 87.6446 308.396 87.6446C312.596 90.9299 330.808 108.617 339.088 129C345.588 145 342.196 186.046 341.088 197C340.696 199.358 318.088 198.5 318.088 198.5C318.088 198.5 318.28 232 312.088 258.481C299.588 263 294.588 266 281.558 269.98V295.167C281.558 298.233 278.637 299 277.177 299H205.088C200.706 299 198.588 299 198.588 295.261V284.048C195.283 283.997 149.065 284.048 147.088 284.048V295.261C147.088 299 145.588 299 134.222 299H103.002H71.7825C68.7153 299 67.5834 296.445 67.4008 295.167V269.98Z" fill="#8BFFBC"/>
<path fill-rule="evenodd" clip-rule="evenodd" d="M49.4493 249.067L76.4493 259.567V282.567C76.616 283.734 77.6493 286.067 80.4493 286.067H137.449C138.616 285.901 140.949 284.967 140.949 282.567V275.067C146.749 275.43 158.646 275.267 167.189 275.15C170.431 275.105 173.189 275.067 174.949 275.067C176.754 275.067 179.37 275.107 182.387 275.153L182.396 275.153C190.076 275.27 200.349 275.426 206.449 275.067V282.567C206.449 283.734 207.449 286.067 211.449 286.067H267.949C269.283 286.067 271.949 285.367 271.949 282.567V259.567C274.191 258.744 277.185 257.749 280.363 256.693C288.761 253.902 299.085 250.616 299.588 249C303.738 235.675 304.568 219.483 305.945 204.239L305.946 204.236C306.274 200.605 306.597 197.031 306.949 193.567C306.783 191.901 307.849 188.567 313.449 188.567H326.449C327.949 188.901 331.049 188.267 331.449 183.067C331.494 182.491 331.573 181.702 331.672 180.728C332.683 170.725 335.663 141.249 322.449 122.567C310.849 106.167 300.283 96.0675 296.449 93.0675C296.449 93.0675 275.449 13.0345 173.449 13.0345C87.8344 13.0345 57.616 65.9008 50.4493 94.5675C41.2827 98.9008 21.5493 116.267 15.9493 151.067C9.86831 188.857 20.3901 189.29 23.2575 189.408C23.2575 189.408 23.9493 189.436 23.9493 189.567C23.9493 189.857 25.2864 189.728 27.1995 189.544C31.9045 189.091 40.0939 188.302 40.4493 192.567C40.4818 192.957 40.5197 193.463 40.5659 194.08C41.0904 201.078 42.6848 222.356 49.4493 249.067ZM51.4493 154.567C49.0493 191.367 54.4493 221.901 57.4493 232.567C77.616 241.234 128.149 258.767 174.949 259.567C221.749 260.367 272.616 241.901 291.449 232.567C293.116 224.401 296.449 197.867 296.449 157.067C296.449 106.067 276.949 21.5345 172.949 21.0345C68.9493 20.5345 54.4493 108.567 51.4493 154.567ZM61.9493 222.067C83.7827 230.067 132.949 246.234 174.949 245.034C216.949 243.834 268.449 228.734 286.449 221.567C287.949 204.734 290.749 168.267 289.949 157.067C289.9 156.377 289.854 155.449 289.798 154.306C288.715 132.285 283.73 30.8866 173.449 28.0345C65.4538 25.2415 57.5926 129.421 57.0883 154.567C56.5883 179.5 57.0883 192.567 61.9493 222.067ZM228.449 113.567C219.283 114.234 200.749 121.367 199.949 144.567C199.149 167.767 218.616 172.901 228.449 172.567C238.449 172.567 258.449 166.667 258.449 143.067C258.449 119.467 238.449 113.567 228.449 113.567ZM89.4493 143.067C89.8493 120.267 108.949 113.901 118.449 113.567C127.949 113.567 147.149 119.467 147.949 143.067C148.749 166.667 128.616 172.567 118.449 172.567C108.616 172.234 89.0493 165.867 89.4493 143.067ZM173.449 50.5675C121.826 50.5675 101.037 72.8854 88.343 86.5133C87.5126 87.4048 86.7168 88.259 85.9493 89.0675C98.4493 83.0675 133.449 70.8675 173.449 70.0675C213.449 69.2675 248.783 82.4008 261.449 89.0675C260.384 88.0164 259.265 86.8699 258.075 85.6514C245.118 72.3789 223.825 50.5675 173.449 50.5675ZM215.949 196.067C215.949 196.067 141.283 196.901 131.949 196.067C131.949 221.051 153.776 221.566 172.66 222.012C173.429 222.03 174.192 222.048 174.949 222.067C223.588 223.324 215.949 196.067 215.949 196.067Z" fill="#0A2F38"/>
</svg>
